<svg width="32" height="32" viewBox="0 0 32 32" fill="none" xmlns="http://www.w3.org/2000/svg">
  <path d="M12 24C16.4183 24 20 20.4183 20 16C20 11.5817 16.4183 8 12 8C7.58172 8 4 11.5817 4 16C4 20.4183 7.58172 24 12 24ZM12 11.2C14.651 11.2 16.8 13.349 16.8 16C16.8 18.651 14.651 20.8 12 20.8C9.34903 20.8 7.2 18.651 7.2 16C7.2 13.349 9.34903 11.2 12 11.2Z" fill="black"/>
  <path d="M20 24C24.4183 24 28 20.4183 28 16C28 11.5817 24.4183 8 20 8M20 24H20.01M20 24L20 28M20 8L20 16" stroke="black" stroke-width="3.2" stroke-linecap="round"/>
</svg>
