<svg width="154" height="144" viewBox="0 0 154 144" fill="none" xmlns="http://www.w3.org/2000/svg">
<path d="M77 72C77 52 62 37 42 37C22 37 7 52 7 72C7 92 22 107 42 107C62 107 77 92 77 72Z" stroke="#202020" stroke-width="14" stroke-linecap="round" stroke-linejoin="round"/>
<path d="M77 72C77 52 92 37 112 37C132 37 147 52 147 72C147 92 132 107 112 107C92 107 77 92 77 72Z" stroke="#202020" stroke-width="14" stroke-linecap="round" stroke-linejoin="round"/>
<path d="M147 7V72" stroke="#202020" stroke-width="14" stroke-linecap="round" stroke-linejoin="round"/>
<path d="M77 72V137" stroke="#202020" stroke-width="14" stroke-linecap="round" stroke-linejoin="round"/>
</svg>
